<?xml version="1.0" encoding="UTF-8" standalone="no"?>
<!-- Created with Inkscape (http://www.inkscape.org/) -->

<svg
   width="97.679359mm"
   height="35.168362mm"
   viewBox="0 0 97.679359 35.168362"
   version="1.1"
   id="svg5"
   xml:space="preserve"
   sodipodi:docname="Logo_complet_couleur.svg"
   inkscape:export-filename="Logo_complet_couleur2.png"
   inkscape:export-xdpi="210.08"
   inkscape:export-ydpi="210.08"
   inkscape:version="1.2.2 (732a01da63, 2022-12-09)"
   xmlns:inkscape="http://www.inkscape.org/namespaces/inkscape"
   xmlns:sodipodi="http://sodipodi.sourceforge.net/DTD/sodipodi-0.dtd"
   xmlns:xlink="http://www.w3.org/1999/xlink"
   xmlns="http://www.w3.org/2000/svg"
   xmlns:svg="http://www.w3.org/2000/svg"><sodipodi:namedview
     id="namedview7"
     pagecolor="#ffffff"
     bordercolor="#000000"
     borderopacity="0.25"
     inkscape:showpageshadow="2"
     inkscape:pageopacity="0.0"
     inkscape:pagecheckerboard="0"
     inkscape:deskcolor="#d1d1d1"
     inkscape:document-units="mm"
     showgrid="false"
     showguides="true"
     inkscape:zoom="0.74564394"
     inkscape:cx="170.99314"
     inkscape:cy="1038.029"
     inkscape:window-width="1920"
     inkscape:window-height="1017"
     inkscape:window-x="-8"
     inkscape:window-y="-8"
     inkscape:window-maximized="1"
     inkscape:current-layer="layer2" /><defs
     id="defs2"><linearGradient
       inkscape:collect="always"
       id="linearGradient17063"><stop
         style="stop-color:#58dde8;stop-opacity:1;"
         offset="0"
         id="stop17061" /><stop
         style="stop-color:#5075ff;stop-opacity:1;"
         offset="1"
         id="stop17059" /></linearGradient><linearGradient
       inkscape:collect="always"
       id="linearGradient16018"><stop
         style="stop-color:#58dbe9;stop-opacity:1;"
         offset="0"
         id="stop16014" /><stop
         style="stop-color:#5076ff;stop-opacity:1;"
         offset="1"
         id="stop16016" /></linearGradient><linearGradient
       inkscape:collect="always"
       id="linearGradient13719"><stop
         style="stop-color:#c15be4;stop-opacity:1;"
         offset="0"
         id="stop13717" /><stop
         style="stop-color:#fc66c5;stop-opacity:1;"
         offset="1"
         id="stop13715" /></linearGradient><linearGradient
       inkscape:collect="always"
       id="linearGradient12538"><stop
         style="stop-color:#8d52fe;stop-opacity:1;"
         offset="0"
         id="stop12534" /><stop
         style="stop-color:#fd66c5;stop-opacity:1;"
         offset="1"
         id="stop12536" /></linearGradient><linearGradient
       inkscape:collect="always"
       id="linearGradient4204"><stop
         style="stop-color:#5075ff;stop-opacity:1;"
         offset="0"
         id="stop4202" /><stop
         style="stop-color:#58dde8;stop-opacity:1;"
         offset="1"
         id="stop4200" /></linearGradient><linearGradient
       inkscape:collect="always"
       id="linearGradient3215"><stop
         style="stop-color:#9455fc;stop-opacity:1;"
         offset="0"
         id="stop3211" /><stop
         style="stop-color:#f867c8;stop-opacity:1;"
         offset="1"
         id="stop3213" /></linearGradient><style
       id="style305">.cls-1{fill:#fff;}</style><linearGradient
       inkscape:collect="always"
       xlink:href="#linearGradient3215"
       id="linearGradient3217"
       x1="0.49000001"
       y1="0.9300018"
       x2="193.14999"
       y2="193.61"
       gradientUnits="userSpaceOnUse" /><linearGradient
       inkscape:collect="always"
       xlink:href="#linearGradient3215"
       id="linearGradient4128"
       gradientUnits="userSpaceOnUse"
       x1="0.49000001"
       y1="96.803535"
       x2="193.64291"
       y2="96.803535" /><linearGradient
       inkscape:collect="always"
       xlink:href="#linearGradient3215"
       id="linearGradient4130"
       gradientUnits="userSpaceOnUse"
       x1="0.49000001"
       y1="96.803535"
       x2="193.64291"
       y2="96.803535" /><linearGradient
       inkscape:collect="always"
       xlink:href="#linearGradient3215"
       id="linearGradient4132"
       gradientUnits="userSpaceOnUse"
       x1="0.49000001"
       y1="96.803535"
       x2="193.64291"
       y2="96.803535" /><linearGradient
       inkscape:collect="always"
       xlink:href="#linearGradient3215"
       id="linearGradient4134"
       gradientUnits="userSpaceOnUse"
       x1="0.49000001"
       y1="96.803535"
       x2="193.64291"
       y2="96.803535" /><linearGradient
       inkscape:collect="always"
       xlink:href="#linearGradient3215"
       id="linearGradient4136"
       gradientUnits="userSpaceOnUse"
       x1="0.49000001"
       y1="96.803535"
       x2="193.64291"
       y2="96.803535" /><linearGradient
       inkscape:collect="always"
       xlink:href="#linearGradient3215"
       id="linearGradient4138"
       gradientUnits="userSpaceOnUse"
       x1="0.49000001"
       y1="96.803535"
       x2="193.64291"
       y2="96.803535" /><linearGradient
       inkscape:collect="always"
       xlink:href="#linearGradient3215"
       id="linearGradient4140"
       gradientUnits="userSpaceOnUse"
       x1="0.49000001"
       y1="96.803535"
       x2="193.64291"
       y2="96.803535" /><linearGradient
       inkscape:collect="always"
       xlink:href="#linearGradient3215"
       id="linearGradient4142"
       gradientUnits="userSpaceOnUse"
       x1="0.49000001"
       y1="96.803535"
       x2="193.64291"
       y2="96.803535" /><linearGradient
       inkscape:collect="always"
       xlink:href="#linearGradient4204"
       id="linearGradient4206"
       x1="70.612907"
       y1="155.68547"
       x2="107.69355"
       y2="155.68547"
       gradientUnits="userSpaceOnUse"
       gradientTransform="matrix(1.0861244,0,0,1,-161.73951,-22.738839)" /><linearGradient
       inkscape:collect="always"
       xlink:href="#linearGradient12538"
       id="linearGradient12532"
       gradientUnits="userSpaceOnUse"
       gradientTransform="matrix(0.91756723,0.58115108,-0.53506862,0.84480861,136.95195,-70.519877)"
       x1="79.448967"
       y1="174.19633"
       x2="108.08779"
       y2="154.49544" /><linearGradient
       inkscape:collect="always"
       xlink:href="#linearGradient13719"
       id="linearGradient13721"
       x1="118.55444"
       y1="122.6317"
       x2="131.78987"
       y2="122.50624"
       gradientUnits="userSpaceOnUse"
       gradientTransform="translate(-2.4203353,-241.28371)" /><linearGradient
       inkscape:collect="always"
       xlink:href="#linearGradient16018"
       id="linearGradient17069"
       x1="175.40222"
       y1="104.81615"
       x2="175.47302"
       y2="140.37784"
       gradientUnits="userSpaceOnUse" /><linearGradient
       inkscape:collect="always"
       xlink:href="#linearGradient17063"
       id="linearGradient17071"
       x1="-45.116566"
       y1="131.70288"
       x2="-75.916603"
       y2="149.47916"
       gradientUnits="userSpaceOnUse" /></defs><g
     inkscape:label="Calque 1"
     inkscape:groupmode="layer"
     id="layer1"
     transform="translate(-10.744431,-9.3835237)"><g
       id="Calque_2-2"
       data-name="Calque 2"
       transform="matrix(0.18164265,0,0,0.18164265,10.655427,9.3840546)"
       style="fill:url(#linearGradient3217);fill-opacity:1"
       inkscape:export-filename=".\logo_complet_couleurs.svg"
       inkscape:export-xdpi="210.08"
       inkscape:export-ydpi="210.08"><path
         class="cls-1"
         d="M 96.82,193.6 A 96.12,96.12 0 0 1 26.41,163 95.44,95.44 0 0 1 1.29,109.69 C 0.98,107.25 0.76,104.84 0.64,102.54 0.54,100.8 0.49,99 0.49,97.26 a 96.33,96.33 0 0 1 192.66,0 97.89,97.89 0 0 1 -0.91,13.25 v 0.1 a 96.35,96.35 0 0 1 -95.41,83 z m 0,-189.91 A 93.51,93.51 0 0 0 3.25,97.26 c 0,1.72 0,3.44 0.14,5.13 0.11,2.24 0.33,4.57 0.63,7 a 93.54,93.54 0 0 0 92.8,81.5 93.6,93.6 0 0 0 92.67,-80.52 v -0.1 a 95.23,95.23 0 0 0 0.89,-13 A 93.68,93.68 0 0 0 96.82,3.69 Z"
         id="path309"
         style="fill:url(#linearGradient4128);fill-opacity:1" /><path
         class="cls-1"
         d="M 52.84,13.09 A 95.46,95.46 0 0 0 12.89,52.81 7.47,7.47 0 0 1 9,50.73 L 8.7,50.43 A 29.54,29.54 0 0 1 50.43,8.65 l 0.29,0.3 a 7.46,7.46 0 0 1 2.12,4.14 z"
         id="path311"
         style="fill:url(#linearGradient4130);fill-opacity:1" /><path
         class="cls-1"
         d="m 140.8,13.09 a 95.38,95.38 0 0 1 39.94,39.72 7.5,7.5 0 0 0 3.95,-2.08 l 0.3,-0.3 A 29.542921,29.542921 0 0 0 143.21,8.65 l -0.3,0.3 a 7.5,7.5 0 0 0 -2.11,4.14 z"
         id="path313"
         style="fill:url(#linearGradient4132);fill-opacity:1" /><path
         class="cls-1"
         d="M 55.09,115.25 A 16.57,16.57 0 1 0 71.66,131.82 16.58,16.58 0 0 0 55.09,115.25 Z"
         id="path315"
         style="fill:url(#linearGradient4134);fill-opacity:1" /><path
         class="cls-1"
         d="M 38.16,86.38 A 48.58,48.58 0 0 0 2,102.46 c 0.13,2.38 0.35,4.73 0.64,7.05 a 95.12,95.12 0 0 0 50.28,72 48.7,48.7 0 0 0 -14.76,-95.13 z m 16.93,65.45 a 20,20 0 1 1 20,-20 20,20 0 0 1 -20,20 z"
         id="path317"
         style="fill:url(#linearGradient4136);fill-opacity:1" /><path
         class="cls-1"
         d="m 138.55,115.25 a 16.57,16.57 0 1 0 16.56,16.57 16.58,16.58 0 0 0 -16.56,-16.57 z"
         id="path319"
         style="fill:url(#linearGradient4138);fill-opacity:1" /><path
         class="cls-1"
         d="m 155.48,86.38 a 48.7,48.7 0 0 0 -14.78,95.11 95.05,95.05 0 0 0 50.28,-72 c 0.3,-2.32 0.52,-4.67 0.64,-7.05 A 48.54,48.54 0 0 0 155.48,86.38 Z m -16.93,65.45 a 20,20 0 1 1 20,-20 20,20 0 0 1 -20,20 z"
         id="path321"
         style="fill:url(#linearGradient4140);fill-opacity:1" /><path
         class="cls-1"
         d="m 108.07,164.28 v 0.83 a 11.26,11.26 0 0 1 -22.51,0 v -0.83 A 6.4,6.4 0 0 1 92,157.89 h 9.73 a 6.39,6.39 0 0 1 6.34,6.39 z"
         id="path323"
         style="fill:url(#linearGradient4142);fill-opacity:1" /></g></g><g
     inkscape:groupmode="layer"
     id="layer2"
     inkscape:label="Calque 2"
     transform="translate(-10.744431,-9.3835237)"><g
       id="g17083"
       transform="matrix(0.45257755,0,0,0.45257755,19.917875,-29.819498)"
       inkscape:export-filename=".\typ_couleurs.png"
       inkscape:export-xdpi="210.08"
       inkscape:export-ydpi="210.08"><rect
         style="fill:url(#linearGradient4206);fill-opacity:1;stroke-width:0.275741"
         id="rect4198"
         width="40.274197"
         height="4.7903223"
         x="-85.045105"
         y="130.55147"
         ry="2.3951612"
         transform="rotate(-60.122629)" /><path
         id="rect8829"
         style="fill:url(#linearGradient17071);fill-opacity:1;stroke-width:0.275741"
         d="m -45.116564,131.70288 c -0.419183,-0.6913 -1.178808,-1.15156 -2.049598,-1.15156 l -35.483593,7e-5 c -1.326918,0 -2.395275,1.06828 -2.395275,2.3952 0,1.32691 1.068282,2.39527 2.395199,2.39527 l 31.341524,-1.7e-4 -15.786952,27.07514 c -0.668372,1.14629 -0.283539,2.60729 0.862755,3.27566 1.146294,0.66838 2.607292,0.28354 3.275664,-0.86275 l 17.872979,-30.65388 c 0.443281,-0.76025 0.423086,-1.65857 0.02496,-2.37261 -0.01429,-0.0264 -0.02955,-0.0522 -0.04479,-0.078 -0.0044,-0.007 -0.0084,-0.0151 -0.01287,-0.0224 z"
         transform="rotate(-60.122629)" /><path
         id="path12526"
         style="fill:url(#linearGradient17069);fill-opacity:1;stroke-width:0.275741"
         d="m 175.40222,104.81615 c -0.80824,0.0191 -1.58573,0.44849 -2.01951,1.20355 l -17.67593,30.76763 c -0.66099,1.15056 -0.26689,2.60908 0.88367,3.27008 1.15056,0.661 2.60909,0.26689 3.27008,-0.88367 l 15.61249,-27.17612 15.61248,27.17612 c 0.661,1.15056 2.11952,1.54467 3.27008,0.88367 1.15057,-0.661 1.54467,-2.11952 0.88367,-3.27008 l -17.67644,-30.76764 c -0.43839,-0.76308 -1.22737,-1.19306 -2.04484,-1.20354 -0.03,-7.4e-4 -0.06,-3.8e-4 -0.0899,0 -0.009,1.1e-4 -0.0172,-2e-4 -0.0258,0 z" /><g
         id="g17075"><path
           id="path12530"
           style="opacity:0.99639;fill:url(#linearGradient12532);fill-opacity:1;stroke-width:0.275741"
           d="m 152.07086,120.47766 -32.36693,-14.91308 c -1.3962,-0.50961 -2.36794,0.25595 -2.76313,1.01273 -0.43623,0.83534 -0.50907,2.18454 0.61191,2.89454 l 28.71415,13.02481 -28.48858,13.33297 c -1.41439,0.95602 -1.16542,2.27767 -0.83546,2.97045 0.49236,1.03373 1.73838,1.94338 3.55899,1.09314 L 152.1953,124.7998 c 0.79347,-0.44846 1.22156,-1.26659 1.25274,-2.13062 0.14361,-1.15047 -0.70486,-1.76043 -1.37718,-2.19152 z"
           sodipodi:nodetypes="ccscccscccc" /><rect
           style="opacity:1;fill:url(#linearGradient13721);fill-opacity:1;stroke-width:0.264583"
           id="rect13713"
           width="13.988177"
           height="4.5163579"
           x="115.82044"
           y="-121.16109"
           ry="2.2581789"
           rx="2.3522706"
           transform="rotate(90)" /></g></g></g></svg>
